<svg width="663" height="241" viewBox="0 0 663 241" fill="none" xmlns="http://www.w3.org/2000/svg">
<path d="M84.0111 11.8779C96.3815 4.74111 111.618 4.74111 123.989 11.8779L187.989 48.801C200.371 55.9446 208 69.1532 208 83.4484V157.243C208 171.538 200.371 184.747 187.989 191.891L123.989 228.814C111.619 235.951 96.3815 235.951 84.0111 228.814L20.0111 191.891C7.6288 184.747 0 171.538 0 157.243V83.4484C0 69.1532 7.6288 55.9446 20.0111 48.801L84.0111 11.8779Z" fill="url(#paint0_linear_55_1893)"/>
<path d="M134.016 148.542L107.198 203.048C106.637 204.192 105.591 204.911 104.353 205.03L103.986 205.044L103.619 205.03C102.381 204.911 101.337 204.192 100.773 203.048L73.9556 148.542H73.9598H134.016Z" fill="url(#paint1_linear_55_1893)"/>
<path d="M16.0161 120.144C16.1007 121.29 16.562 122.287 17.3959 123.121L95.8853 201.559C98.0424 203.715 100.634 204.879 103.621 205.03C102.383 204.911 101.339 204.192 100.775 203.048L73.9617 148.534L16.0161 120.144Z" fill="url(#paint2_linear_55_1893)"/>
<path d="M191.948 120.144C191.863 121.29 191.402 122.287 190.568 123.121L112.079 201.559C109.922 203.715 107.33 204.879 104.343 205.03C105.582 204.911 106.625 204.192 107.189 203.048L134.002 148.534L191.948 120.144Z" fill="url(#paint3_linear_55_1893)"/>
<path d="M73.9597 148.54H73.9839L102.602 36.613C102.747 36.043 103.206 35.6362 103.77 35.5496C103.656 35.5456 103.539 35.5435 103.424 35.5496C103.166 35.5556 102.908 35.5637 102.651 35.5758C100.502 35.753 98.4048 36.6553 96.7533 38.2807L17.422 116.361C16.4814 117.286 16.006 118.418 16 119.737C16 119.876 16.0041 120.011 16.0141 120.146L73.9597 148.54Z" fill="url(#paint4_linear_55_1893)"/>
<path d="M134.04 148.54H134.016L105.398 36.613C105.253 36.043 104.794 35.6362 104.23 35.5496C104.344 35.5456 104.461 35.5435 104.576 35.5496C104.834 35.5556 105.092 35.5637 105.349 35.5758C107.498 35.753 109.595 36.6553 111.247 38.2807L190.578 116.361C191.518 117.286 191.994 118.418 192 119.737C192 119.876 191.996 120.011 191.986 120.146L134.04 148.54Z" fill="url(#paint5_linear_55_1893)"/>
<path d="M134.016 148.542L105.398 36.6151C105.253 36.0451 104.794 35.6382 104.23 35.5516H103.768C103.204 35.6382 102.747 36.0451 102.6 36.6151L73.982 148.542H134.016Z" fill="url(#paint6_linear_55_1893)"/>
<path class="text" d="M333.309 172.954C311.664 172.954 289.732 168.63 288.144 140.524H310.221C312.242 150.613 321.765 153.496 334.896 153.496C350.768 153.496 357.839 149.46 357.839 140.812C357.839 133.75 353.51 130.723 342.976 129.859L324.218 128.273C301.131 126.399 289.732 116.598 289.732 98.4379C289.732 78.8361 303.151 67.738 336.195 67.738C357.983 67.738 379.195 72.3502 380.782 100.312H358.56C356.107 90.2225 348.893 87.3399 335.329 87.3399C319.601 87.3399 313.829 91.0873 313.829 98.2938C313.829 104.636 318.158 107.806 328.258 108.671L346.872 110.257C370.681 112.275 382.369 120.922 382.369 140.236C382.369 161.279 368.084 172.954 333.453 172.954H333.309Z" />
<path class="text" d="M395.447 170.792V95.8436H417.813L418.679 105.789L416.803 110.257C421.853 101.032 429.789 93.6816 445.517 93.6816C466.729 93.6816 476.541 106.798 476.541 127.985V170.792H453.165V132.309C453.165 121.211 448.548 114.004 436.427 114.004C424.306 114.004 418.679 121.211 418.679 132.309V170.792H395.447Z" />
<path class="text" d="M515.335 172.954C499.03 172.954 488.929 165.026 488.929 149.028C488.929 133.894 498.02 126.399 517.644 126.399H543.761V120.634C543.761 113.283 539.432 110.833 528.754 110.833C518.942 110.833 514.325 112.995 513.459 119.049H492.825C491.959 99.591 506.389 93.6816 529.187 93.6816C555.882 93.6816 566.993 102.041 566.993 119.049V170.792H547.368L545.06 160.27H544.483C539.144 168.341 527.744 172.954 515.335 172.954ZM512.593 147.875C512.593 152.487 515.624 155.514 523.704 155.514H524.714C535.536 155.514 543.761 151.046 543.761 143.551V140.524H521.395C515.624 140.524 512.593 143.119 512.593 147.875Z" />
<path class="text" d="M618.496 194.717C605.221 194.717 595.12 191.835 590.214 188.664V170.936C594.831 173.818 603.778 177.133 616.331 177.133C623.979 177.133 639.996 175.836 639.996 161.135V154.217C635.667 164.162 625.133 167.188 615.033 167.188C592.811 167.188 579.536 152.343 579.536 131.012C579.536 109.536 593.244 93.8258 614.889 93.8258C626.576 93.8258 635.811 98.4379 643.17 111.554L639.13 104.059L639.852 95.8436H662.362V158.396C662.362 187.367 640.14 194.717 618.496 194.717ZM602.479 131.012C602.479 141.245 609.261 149.028 620.949 149.028C632.637 149.028 639.274 141.245 639.274 131.012C639.274 120.778 632.637 112.995 620.949 112.995C609.261 112.995 602.479 120.778 602.479 131.012Z" />
<defs>
<style>
  @media (prefers-color-scheme: dark) {
    .text { fill: #ffffff }
  }

  @media (prefers-color-scheme: light) {
    .text { fill: #0a0a0a; }
  }
</style>
<linearGradient id="paint0_linear_55_1893" x1="103.999" y1="240.349" x2="103.999" y2="0.34654" gradientUnits="userSpaceOnUse">
<stop stop-color="#471695"/>
<stop offset="1" stop-color="#7B00F7"/>
</linearGradient>
<linearGradient id="paint1_linear_55_1893" x1="103.986" y1="148.542" x2="103.986" y2="205.044" gradientUnits="userSpaceOnUse">
<stop stop-color="#FDA349"/>
<stop offset="1" stop-color="#FEB549"/>
</linearGradient>
<linearGradient id="paint2_linear_55_1893" x1="59.8187" y1="120.144" x2="59.8187" y2="205.03" gradientUnits="userSpaceOnUse">
<stop stop-color="#FE763C"/>
<stop offset="1" stop-color="#FE9943"/>
</linearGradient>
<linearGradient id="paint3_linear_55_1893" x1="148.145" y1="120.144" x2="148.145" y2="205.03" gradientUnits="userSpaceOnUse">
<stop stop-color="#FE763C"/>
<stop offset="1" stop-color="#FE9943"/>
</linearGradient>
<linearGradient id="paint4_linear_55_1893" x1="59.8852" y1="35.5458" x2="59.8852" y2="148.54" gradientUnits="userSpaceOnUse">
<stop stop-color="#FE7C11"/>
<stop offset="1" stop-color="#FEB11C"/>
</linearGradient>
<linearGradient id="paint5_linear_55_1893" x1="148.115" y1="35.5458" x2="148.115" y2="148.54" gradientUnits="userSpaceOnUse">
<stop stop-color="#FE7C11"/>
<stop offset="1" stop-color="#FEB11C"/>
</linearGradient>
<linearGradient id="paint6_linear_55_1893" x1="103.999" y1="35.5516" x2="103.999" y2="148.542" gradientUnits="userSpaceOnUse">
<stop stop-color="#FEA31C"/>
<stop offset="1" stop-color="#FDC81C"/>
</linearGradient>
</defs>
</svg>
